<mxfile host="65bd71144e">
    <diagram id="EuvmbHWdBIfX9uvXjWpJ" name="Page-1">
        <mxGraphModel dx="1039" dy="486" grid="1" gridSize="10" guides="1" tooltips="1" connect="1" arrows="1" fold="1" page="1" pageScale="1" pageWidth="827" pageHeight="1169" math="0" shadow="0">
            <root>
                <mxCell id="0"/>
                <mxCell id="1" parent="0"/>
                <mxCell id="2" value="" style="shape=image;verticalLabelPosition=bottom;labelBackgroundColor=#ffffff;verticalAlign=top;aspect=fixed;imageAspect=0;image=data:image/png,iVBORw0KGgoAAAANSUhEUgAAAJYAAAA6CAYAAABS36B3AAALl0lEQVR4nO1dT2gb2Rn/pREIrKzBNJKsOXSTY6PIIAnvNbGS9mBFXcru4q6hLfjPZtuNWdND/7iuD8Z1uz0lJAubWAr0otgUUoIy6sWRk1Nhg2SQrPTo3cuMLQVcFNtBxU56GL/xaPRGmj9v5Dg7PwjYY817T/N+8/2+933feznRF4y/hgMHjPG9ox6Ag7cTDrEc2AKHWA5sgUMsB7bgWBDL4/IfWb9ed9+R9H3ccSyItbO3CY/L31GCeVx+dJ30o1ovdqzPtwnHgliARK6uk50hl8flh88dckhlAceGWABQrRfhc4dsJZfH5ceZrktY31m2rY/vAo4VsQBgfWcZZ7ou2UIuj8uP93o+R7mWZt72dw3HjlgAUK6lce6dj3U71no+R0i1Up2yOjwHAFztPhBPxHQ1JAhVrOZLhjoPR0PgOK+he/hMDgDwdOs6gt3DOOXytZWtUy4fqnXtv3tcflw4PY/sxqihsRAEOB8i0fOm7iUo5NcgChWmbZNn1QrxREyzbytoS6yRsSFwnK9tQ4JQwbVf/cnQAMfGP0IkGtL9eUGoNDysci2NYPcwgt3D+Gb3EXb2Nqn3dZ3UHj8h1dOtG7rHoUYkeh7TMxOm7weAudmb4IVmIgzGBzD2yc8Mt1fIl9oSK56IYXpmAoV8CZ99OmO4j1Y40S4JHVZNPMd5NR8in8lhbvam7s5J2xznRTgcpFpHPpODKFZQKDzDhrhJJW6wexhdJ3149uIelVz9PZN4unW96brH5Ue8N4WV6pSlFWCA86E3cOjztfo+gPSCZB/mUCg8k69pfTd125HIOSrR1G1qtafE9MwE4okYBKGCD96/2vpLGkRbYtHw5Vezmpbm15/OGJZEAvIGESTvLCK1sKTr3mD3MHzu8/h660YTuQZ7U3jyfKrhuhaplPIsCFVsiNI9ZqSCTJwac7M3dcmUFtTPyazF+ffTf8o/W5k3GtpKIQ2iUAWi9L9Nz1wzzf5Cfg2FfEkmrV5SAZIsonsYF07PN5FIDa+7DwPeeZRraVz93QUEuA/RG/C3lPxCvoQs/9iQP5JKLlGJJQhVXfdrj2Wt4fe52VuG21CPa2z8I3zGkFjMV4Uc58Po+JCpe5UTZuaNLtfS+Hb3EeK9qYaV4KmDKDpwSKr1nWX8dPL7iCdiiERDbf3ISDSE6ZkJ3H9wG9MzEwjo8DtFlU9IEI9fNPjNmtsl4DM5U9Z0UDUGpdyygCViFTQYPngl1uSb6W+zbGVIKNfSKNfSGPDO46znsnz9lMsnk6paL6LvQ1HTByKOb/LOIgr5Egr5EgTF5MUTMdx/cFvXipnnHzddC1tcQSqfLa19PVC7Mhzn0x0B0ANTUkhQyJdRyJebnEmO81k2raJofvlLApz9PZPyivBMVwxedx+29zbx3x/cw9gns/LniczRrEtq4fDncDSESOQcBq/EwHE+TM9MIBwOIpVc0rQaqwfEVE4kx/kQjoZM+zTKEI2ZNrQINBi/aMn3U8ISsQAgy6/ID1qJSDSEeCLGbKBGQcgV7B4GAJlUT55P4WJ/EMk7iwCk8euVktV8Cav5ElILku80MjaEeCKGAOfF3OwtzXYK+XKThbDy4vX2SsQy+2zVMii3y1AOLftYolDRdB5HxoZ0+SJW4XH5cdZzGWc9lxHsHkZ/zyQGvPN4t+tSw+dOHawEPau/wYt//Rxi5scIv/oLgt3D8v16wWdy+OD9q0jeWTzwv65pftcsv9J0zcokDl6RLA4rGSRgKYdMnPdVjWAcx/kwOmbOkW8HUivldffB55YeFJG93f0KtvcqeLnfvDIs19JYqU4huzEq/yvX0ljfWTaVeE4tLGFu9iZ6A34MxgeonxGFSpM/amUSiTqYkUFlmIIWc9SyZkbBbFWYSi41OLgE8YR5R74VdvY2Ua0XUa0XZVIQx71cSzcERLcPQg/be5t4t+sSdvc38Ye5XzIbC5/J4W5yCYNXYi0WBM2LEjOTSNo3K4Nk4cBnck1hC0CyZizmixmxRKGCu0l63Gl65hqrbnRjwDsPr7sPK9UpvNyXSPifF/cAABdOz2N++u9M++MzOWQf5jTlnyaHZiZx5EABzMhgPHHoC6+ulqmWFJCi+1bBNI4lvQXNA7US2zKD/p5JeN19KL76Aj/5xQ+xvSdJ4/rOspwTvHB6nnnpTWphCdmHOaoksppEKzIYDgfln4m1Si78o3lM0WDTNaNgHiDVcuStxLaMgDjhxVdfYGLmR7KjS1CtF/HkuVQaYwe5svyK5sRkKVZGPb5WYCmDZAVLUlZKsJBD5sSSVonNTiGJbdkJr7sP/T2TMqnI6uf5/9awu3/o/+3sbSK7MYqX+5vMySVZpjJVDmk+DYlp6QHxyVjIYON42cuhLYV+JOenBolt2QGPy48B7zxWqlMNpFrNr2F7jx5fkhLQJebkSi0sUWuotCZRb4rn8DuxkUECmhwasaQ02EKsdrEt1lBXKijjNMq3k4anW9fx7e4jvNfzeUc2atAmUU+Kx6oMKu9XB3JpcmjEktJgW2myKFTk6LYSJBXCEqSkuFovNj0MPpNDtV5skEI1yrU0vtnNMSWXVgWD2UkkMtjuRaFBqRK0+7WS5Vbk0Naa9yy/Yntsa8A7j7XaolxTpcyjKfvWkkOC9Z1lrNUWbbdcZiseiBU2Y7GU8TKanwfQ/TYrcmgrsVpJIovYVn/PZAOp1FhVPMRdShRejWq9iK+3bjAh12q+pJniMVrxYFUGlaTUymduiJtNRsCKHNq+S6dlusdCbEuqc8/pLiluVfin/txKdQrn3vnYMrlYTaKdMkggHpQ2q2FWDjuy/SulEZE3G9vyuvtQqa9RSaX0bayU3jzdum7b/kWtSdQKx1iRQeViSUsG5b8ravAJzMphR4jFMrZFKkP1WKpAwFplRbmWlhPcrKG34sGKDIYVlbF6Kk1J7ZgSZuWwYxtWtdI9RmJbxHq0IpVy1RUwuGeRhvWdZVtOnNFb8WBJBhVOu977aclyM6XUlgv9jGBu9hbuP7jddH1kbKjtG+lx+bGzt9nWVyITFomGmBWuVetFuX+WoBUAqqs4rcigckEwMjakK4ZIq/03U0rd0S32rSSxXWzLyKSSnJzVIJ/Z/vWiXcWDFRlUpnAA6Vno+UeDmefYUYsFNG/xIognYqYrIml9EEQi55jul2MJpXVVgozZigwqUzhG9zGOjg817WOIxy8aeo4dPxTE7tgW6YM8SKs5L7vRquKBEK7dao4Gpa9m1OLRLKlROTyS02ZapXtYEYGEOFhva2INrYoH4hqY2TdohVSA9sLCiBwe2TFGWukePQeQ6IHSn7Mj8c0KmhUPB+SwKoNm3QuaJTWyOjwyYrWSRFYgm07tSHyzBK3igcCqDJr1L2n9GpHDIz14TSvdwxJZfgWFfAnxRKyj5dFGQKt4AI5GBgmsyqEpYhHmsqiN1kr3sAKxjHwmh8Erbya5tOTQjAwqZd9KSgugy6HeTIlhYgUU8Y7egN/yhlSt2BZLiEIFqeTBRoc3lFw0OTQqg6PjjYfkWX3xaTVlvQG/LqtliFgBztcQEuBUv5uFVrqHJUShgtTCEu4mlxCJBnWfGNMpqOXQqAzSYk9WX3zaMZ5657ztwWuj40MIBHwIcF7NrdmCUJFrn0SxYuhcK4IA52tI9xg5dM1MX5HoeYTDQYhixdD5DXZCeVBbu6BmPBFDOBxsOS+ANDfS6X6H1oemEOFoqGHV165d0ray5k3ZbtvIO+3ADzWkdID0QAr5UsMJLXpBYltmzts00xcv5MBncockGwuC5x9bOsHPKnj+sUysdjI4GL+o6/xWOVWjOCiPnlbzGo73Kedd3a6GxToBoPP/PyaR2kg0ZKvFepPx5VezEIWq7X6n3aAS689//S3++Pu/HcV4HLwlMHW4rQMH7XAs/2cKB28+HGI5sAUOsRzYAodYDmyBQywHtuDE69evnVWhA+b4P9D4Al/tvi1jAAAAAElFTkSuQmCC;" vertex="1" parent="1">
                    <mxGeometry x="420" y="172.5" width="245.68" height="95" as="geometry"/>
                </mxCell>
                <mxCell id="3" value="" style="shape=image;verticalLabelPosition=bottom;labelBackgroundColor=#ffffff;verticalAlign=top;aspect=fixed;imageAspect=0;image=data:image/png,iVBORw0KGgoAAAANSUhEUgAAAFMAAABICAYAAACKo8lYAAAF1ElEQVR4nO2aP0zjVhzHv1e1SzOD1PDU+CQ6MVKSDHBkYKNZiFWB6B1LBROQAcQEQncTgiHABIKBcidQ5bCktzGQuxscqox06Q2meuSkMOeWDnRInpsE28Tv/QJc5I8UIWH7+fnj3+/983tyc3NzgwASvnroCnQSgUxCApmEBDIJCWQSEsgkJJBJyNd+Tv79m37XY6FIGKMfc8oVuk8uXu3i4uWO6/Gf/y36Ks+XTC8G9lepigIAWAc5lN8VcZ0vonJZQvdw9UVqz5PoGu5HSAsr36NveRrWQQ6Vy5JyWQCRzL6VGfthVSnni/jr1Q7K+eKt/4u/3cP9GNhbJRGqTSU9o9MPT/xMJ53SnDK9rYMczn9tPcJH/86RCH3bm3SMTr9prtwB9S1PqxYBAKhYJV8iAeBPn+e7oU0lScpRkhmKhMkqcjYy4/uacr4I60A9K/qWpxGKqEe4kkwqkRWrJN0JlN/5S0U3ugjafGmZoUiYLMWtwz+kr/1M1BN3P1OXKd2bU0UlUI1MqtGALN8SdGRk40wVosRjVBm6h/sRioSVxpzSaU6V4p2ElEyKnu8xotoJScmkbC87iWDViBC5NP/+O+p6dARSMimGEY8R1Xl+kOaESI0zQxG6NK9YJVznaaaEqlQstdnUgw/ar/NF36tFj5UgzQmRklm5/ERWgU7qzKRkflZsWzqVB0/zh14tokQuzf+hS3Ogc+b6cjKJ0zykdcaMSkqm9RvtZoOu4R9Jy3sopNtMyujsIvhk0Ap9KzOI7q22rVmRlkk5axGr3O1EfLPSppIY/Zhri1RpmdYhbaq3e400cdq4a0NI1V4kyaRKyyzni6Sprj3/qW3R2bcy47oiFN1fJZOqNM5U+UTbTEij29BQj/Yi2dL3qnqpsijJvHi5QxqdVDsrBNG9Vd9fPlW+wyvPgCijE6i2bRRCo3urviO9nC/e2n3nB2WZ1NEZ0sIY2JfvaUORMBKnu1JNxtmI2udrkrk5dXR2D/dLdQrRvWq7JzPfv3i16/uaZpT3ZwoSp7ttW7SwDnKwDnOoWJ8adlyIzqL7Wb/SbuJyvugYlX73Z5LJBOg2n95FxSqR3adilfD2B+cm4d43u9ZzNjJDvgjiBKVImX2hbviKzFZ6ui9pfbK6L9R9OdHvs/iSGeDNg6+0dxKBTEICmYT4kjk5PoHE4FDDr5msYdjHJscnsJXZdCyrYJpIDA65Hm+mV3uKyfEJ1+NLC4tIDA6hYJoN/+ecIzE4hKWFRcfrtjKbDc/Van2c8CXzinNwztHDmP27fc6VfU7BNLGVyThK4LWyWkGIKJjmLVnNZS4tLDaUe+Vxn+rLzuCKc8TicQDAViYjLVQqzd8cH9k/N8b0FM4+vAcATwGtUDBNsNqLK5gFz3OF0LvYymyiYJqIxeM4+/AeaxvreH18ZEuVQUqmiKq7IosxZkuQJWsY4JxjTNcBACeG4Xl+LB6vZYR3dIly1jbWG+r75vgIc+l5qbpKbdwSbSVjzI6+Zk6MLLYzm+CcI1UTIcN5LRLH9JSd5iKinBjTU7X7G4jFY67lcs4bXjbnvCGDGGO+o1RK5lw6DQDoYT2u54iKpXS94e37JVuLIMYY5tLzmBw3cWJkPR90bWMdv4xPYGlhEbMOUeaUUQXTbGgeUrp+XzLvToOUriNrGErtZb3IyfEJXNUk3FUmYwyvj49ce/H6iBRRLtrO7cwmsoaBqEdUu9G2cWY0HkMsHgfnXLp33K5dJ0YNPTUJzSnpBGPMMyNm0/MNdRNyxQuU6YikZPZqT+2fF+JhTjwidCuTscuqT7+Cadrtbf3oQZTZygtK6bprex2Lx5HSdXu8K8aaot4yHaevNB/TdTvV3OhhPUjpup1KaxvrODcL4JyjPnEYY54dkxApOpT/y69e1zzGFWnZLEFEYDOMMcym5+3xsBhrzqXnpYdHwaoRIcHcnJBAJiGBTEICmYQEMgkJZBISyCQkkElIIJOQQCYh/wHxE3hkHrjofgAAAABJRU5ErkJggg==;" vertex="1" parent="1">
                    <mxGeometry x="240" y="150" width="161.4" height="140" as="geometry"/>
                </mxCell>
                <mxCell id="4" value="" style="shape=image;verticalLabelPosition=bottom;labelBackgroundColor=#ffffff;verticalAlign=top;aspect=fixed;imageAspect=0;image=data:image/png,iVBORw0KGgoAAAANSUhEUgAAAHgAAAA3CAYAAADHao5rAAAJd0lEQVR4nO2bTWwT6RnH/57x2BMnDoSSFDv2biW6oh+XJpjKhFUPPRQpQHapLGFtpR6gTdSutORgpB445MANtwpIC8ItqnqqkaymCRCVVQ89bLJuY5IT2r1E6saOnSZsAjZJxvZ89OC8w8x4/AWTZJmd3ymemXfeyfz9/J/nfWZs63m7T4KFaaH2+wIsdhdLYJNjCWxyLIFNjiWwybEENjmWwCbHEtjkWAKbHEtgk2MJbHIsgU2Ofb8vAAD6HBL6nBIudQhYESrbHm7TWCjasFCy7e/FveHY9utpkoeWMOiqiFqPnABMb9O4W7DM5lXYU4GJqINtAjy0el/P1WvYXpjD9vwc3IPvAQA27t6W9+cEYL5kw/QWbUV1C+yJwI2i1e7xovfjP8Pu8crbvvz5afC5rO7xZohqv8+LdEb//zMSuv2gZ2w3TuyhJVzokHD1II9LbhH9Dv3vkfvMe+gcfB8AwHh65e3Od74Hu8cLfiUL8UVBPYYC+h0SBl0i3mEkvBBtWBHenKiOjI7gL7E/AABmk48RGR3BRPyP8Ps8+Mcn/zJ0LsMj2ENLuOgWcKZNfVq7x6sScHt+rmqs3ePF2397pBu9JVHCeknAF8824Wlz4NiBNtV+EtXTWzbkvuZipz59IEdw4N2zmIjHMBAMAAC+/Z1+Q+cypIquZ8Fdl36DQ7/6bdV2PpfF9vwc1u/eksXkc1lkP7yoEpcIu7LNAwC+KvL44vkWUl8V4HU5cKzTBa/LAQ8NXOoQ8H4b8KQE/O4ZY8S/tifMJB/vmmUbEsHTPSUcpKujppa4SgoPJ7F67aruvqXNMtZL6i/NYn4Ta1xJ/hz4lhvHDrTBzbys2jhRxAerDFakr2eO1kbwbmJIBC+/KIJ1O8BS6htamJ4EgJoRnH/4d1WlrOWtdgZH2uyqCAYAN0PjWKcLgcMdquM5UcRTTkB6q4yitDsRvFfFkVFzGiJwvizi82dFdDI0ulk7OpmK0Hwui427t7Fx9zbsR7xgvJUcXM4ug1+pvmCSp9m+APiVLAoPJ+GgbDjC2nHIQeMFL+IHBw7BQandQilsKwwEA7gyOoylTBaXI2PyZ7/Pi5lkCpcjlfrT7/PiQugcTgWPYyAYkG92PHEf0fE7uuf2+7yIjA7jVDAAv6+yOphNpnB9PFZ1bDg0hMjocNX5IqMjuDI6AgBNzamHIRb9e+a56jNL2dDN2uFz1Y4iu8cL9+B7YDy9sHu8aOs/odqf/fCibiGmhBNFLG/yWC3yVfuuld3YaNCJvREdQzg0BKByA4kQhMC7Z+H3eTERrxaFkM5kcT48rIqwgWCg7hjl2FpFlnJbrXHNYEiSWtfkOk6UkN4qY2F9G4uFEvJlsWoMn8uiMD2Jcm65Stz1P92qK25m59wL65yuuIsS3VBcLUpx05ksru9EiVIosv36+B3MJlPyuMjosOo8WnFnk6mWLDYcGlKJm85kEU9MqeYgX8xGGGLRt/h2/NRewoCtqNrOiRK4YiXCWMqG3nYGPc6XUxILL0xPoq3vBNxnKhGtl5ebsWGWoiA4GXxZdgLVujcknckiOh6Tb6ZSqPPhYVlUALi3Y9tXRkcQDg3hs+Q84okp3Iy+bCvMJlM4H34pPrFirVNoORl8uVRSzhsdj+FC6Bz8Po9K8HoYIvAHbgm/6KDBCSzWigKecgI4UR21nChhsVDC8mYZ3awdh1laLsr4XBaF3KRclKnH1bZhgs/FoNtJg6Ur5wuAx785O55Kra2H9awWqAilFBeofBnuJe7LeflC6Cxmkil5DLFuJfHEFHw+j5xXa5HO5OS/b0bHMJNM4V7iAWaTqZbyL2CQwD+higAYsDQFv4tCt5NGnhexxvFV9kzse43jq4oyJfmyiMVCEZyoXyKwFIXDLA2/Js9zoojFQgmC1A6geYEvR8ZU4iotcCAYwP/+O193PCnECPHEfd3jouN3EA6dqxvF9xL35WOIHYdDQ0hnsqrirxkMycEkJ5IoY2kKPU47fniARV8Xq1tscaKE1SKPJ885LKxvI7NVxmqRl8/15DmnKy5LUfC5GPQdYlXicqK4M5bTzfmNmNFE6FKLyxJtjs0oorBVSPRrbZiITdbRzWDY82CtBRNRlVFdz74bLXF6nHb0uuyyDRPy5YpT1LPwV0EpGMnN9YgnplRR7/N5dI8jUdnM/JcjY4iOx3BqJwUQ+/f7vLgZHatKAXoY/sC/lgUTof0upmlRiA0r82tljkrBtcbxNS283II966GNyKVMtioPa1FG/ZXREdxL3K86j9LGa+H3eXEqGEA8MSVX0PHElCzsgGJt3QhDLPqRyFZt01qwUsxOhsJRt6OmfWttmIirtOH0VllX3DJNISZ24MVrCgxA1eggN5ZQWR6NYCIekyNXW4yRtSwRQ9m4qMdEPIYb0TGkPn2AcGhIjvoLoXM118a1MCSCGQeDPjdarqC1RRlQEVdbdLVaSf9IEPDLpxRWxdcTeWZHMCLSRDwmR6QygpYU69SPImOYiMdkUZppeGghTRe/z4sbUf2CqlYRp8WQCP51W3FHLAbfP+DAUbdDtzIm9v35s6KqAUKKsh6nuqJu1NAgkX7ysEsV6fkij3IN61aSblAIpTNZfBQZk5seQHUOrSxdYlVj6jU2GjU9tHNquT5+p+nlkiGtyo+ded0lDyeIWCsKyNRtTqjbms02NHrb7aqmiXZcM61KYr0zyccNb1g4NISTwX68tSPuTPIxZpOP6+blgWAAA8HjOBU8jqVMFulMbmftHMDJYL+8th0IBnAzOqZqspDrI8cCkMe30hUzvBfdyVDoZjU3XxBrrotbQdvQAGp/IZoR+JuA4VV0viwiX1Yvl1iakm2YE0QsbzW/rKnX0KiXl1+3ijYLhkTwz+giTlOc7j6WstW1b72irDKuWthmlkcbEoW/Ci4sSrTu/m8ahr2T1QURJ+hyTaEB6D5wUNp35RgKbgdVN7/qsSFReCSymBPfnFd19gLDX7ojQv/YVkKXTT/fksJK+cBBj2aWR49EFnMCY+XbGuzae9FdEPFdSsAJqoijNv33oWvZ92qRx/KmfiMDqETrfyQHPhGcu3HppmJPXnxv1r4B1BQVsGz4VdjTn640E9V6WDb86uzbj8+6IOI0zeEEpV84WTZsDPsmMKELIo5TJRy1CThK8VgHhZTA4J86DzAsWmffBbbYXaykZnIsgU2OJbDJsQQ2OZbAJscS2ORYApscS2CTYwlscv4PVxs5L7Vq1PMAAAAASUVORK5CYII=;" vertex="1" parent="1">
                    <mxGeometry x="290" y="300" width="265.09" height="121.5" as="geometry"/>
                </mxCell>
            </root>
        </mxGraphModel>
    </diagram>
</mxfile>